<svg width="48" height="48" viewBox="0 0 48 48" fill="none" xmlns="http://www.w3.org/2000/svg">
    <path
        d="M43.0147 16.9478C46.4249 16.9665 47.9099 12.1268 44.8499 10.4003L42.5474 9.07125C39.1987 7.104 35.6152 11.7315 38.2462 14.52L35.7674 18.8145C33.9689 17.9798 32.0827 17.3489 30.1439 16.9335C30.0221 16.9066 29.8954 16.9108 29.7755 16.9458C29.6557 16.9808 29.5467 17.0454 29.4584 17.1338C26.8417 19.7295 25.9694 23.9085 25.4737 28.5075C24.4867 27.3473 22.9589 26.6168 21.3532 26.7135C21.0009 26.0905 20.5103 25.5566 19.9192 25.153C19.3281 24.7494 18.6522 24.4868 17.9437 24.3855C17.964 23.3151 18.1557 22.255 18.5114 21.2453C23.1247 22.5203 27.7267 19.0485 28.2884 14.1105C28.3025 14.0054 28.2942 13.8985 28.2639 13.7969C28.2337 13.6953 28.1822 13.6013 28.1129 13.521C22.8104 7.6695 13.8284 12.7875 17.2379 20.3783C17.006 20.9691 16.8236 21.5782 16.6927 22.1993C16.0949 21.1973 15.0547 20.1233 14.0422 19.4955C12.9412 13.1835 4.52469 11.9505 1.56969 17.6228C1.51574 17.7278 1.48735 17.8441 1.48682 17.9621C1.4863 18.0802 1.51367 18.1968 1.56669 18.3023C3.85494 22.9928 9.77169 24.024 13.1932 20.7308C14.5304 21.5085 15.7687 23.2493 16.1437 24.486C14.5822 24.873 13.2959 26.0333 12.7919 27.5858C10.4894 28.0058 8.73444 29.9783 8.61144 32.3348C5.47344 31.569 2.77419 35.0558 4.26819 37.902H2.23644C1.26744 37.9133 1.23669 39.384 2.23644 39.402H45.7364C46.7054 39.39 46.7362 37.9193 45.7364 37.902H44.6234C45.1492 35.523 43.6349 33.0585 41.3167 32.4315C41.1828 32.0736 40.9976 31.7371 40.7669 31.4325C42.7289 29.5095 43.9012 27.6938 44.4134 25.764C44.4457 25.6428 44.4471 25.5155 44.4175 25.3937C44.3878 25.2718 44.3282 25.1594 44.2439 25.0665C42.9131 23.6001 41.4241 22.2856 39.8039 21.147L42.2789 16.8593C42.5204 16.914 42.7664 16.9478 43.0147 16.9478ZM19.3672 13.7603C21.3112 11.838 24.9112 12.2415 26.7494 14.2515C26.1839 18.057 22.5937 20.7143 19.1264 19.848C19.9172 18.3895 21.0488 17.1439 22.4249 16.2173C22.5905 16.1069 22.7055 15.9352 22.7445 15.74C22.7836 15.5449 22.7435 15.3422 22.6331 15.1766C22.5784 15.0946 22.5081 15.0242 22.4262 14.9694C22.3444 14.9145 22.2525 14.8764 22.1559 14.857C21.9607 14.818 21.758 14.8581 21.5924 14.9685C20.2106 15.8939 19.0425 17.1039 18.1664 18.5175C17.7517 16.7603 18.1687 14.919 19.3664 13.7595L19.3672 13.7603ZM8.59794 19.5053C9.08994 19.4835 10.3267 19.4948 11.7104 19.998C9.07494 22.164 4.81944 21.1808 3.09219 17.9738C5.21319 14.3955 10.6432 14.7518 12.2317 18.594C10.5817 17.994 9.11394 17.9805 8.52894 18.0068C7.54419 18.0705 7.61319 19.5293 8.59794 19.5053ZM35.1764 37.902H6.13344C4.02444 35.9145 6.57669 32.5995 9.05094 34.1145C9.58419 34.4693 10.3304 33.942 10.1774 33.3218C9.72369 31.239 11.3129 29.145 13.4437 29.0123C13.6075 29.0003 13.7628 28.9349 13.8858 28.8261C14.0089 28.7173 14.0928 28.5711 14.1247 28.41C14.3699 27.1718 15.3254 26.2253 16.5134 25.935C16.6252 26.8403 17.9287 26.8403 17.9969 25.9268C18.4898 26.04 18.9485 26.2691 19.335 26.5953C19.7215 26.9214 20.0246 27.335 20.2192 27.8018C20.3482 28.1153 20.6707 28.2968 21.0067 28.2593C23.0482 27.8843 25.0477 29.4375 25.1962 31.5038C25.2247 32.0798 25.9537 32.4038 26.3999 32.04C28.4114 30.396 31.6057 31.992 31.5389 34.5713C31.5089 35.0513 31.3312 35.646 31.8712 35.9093C32.0109 35.9832 32.1704 36.0111 32.3269 35.989C32.4834 35.9669 32.6289 35.896 32.7427 35.7863C33.0532 35.4863 33.4537 35.3213 33.8714 35.3213C35.1599 35.2845 35.9707 36.8835 35.1764 37.902ZM43.2239 36.9495C43.2239 37.2825 43.1564 37.5968 43.0589 37.902H36.8272C37.3492 36.468 36.5789 34.7948 35.2687 34.1678C34.8434 31.1228 39.2287 30.2453 39.9974 33.2378C40.0313 33.3799 40.1058 33.509 40.212 33.6094C40.3182 33.7097 40.4514 33.7768 40.5952 33.8025C41.3332 33.9348 42.0011 34.3227 42.4817 34.8981C42.9624 35.4735 43.2251 36.1997 43.2239 36.9495ZM42.8489 25.767C42.3502 27.309 41.3159 28.8105 39.6539 30.4245C37.1444 28.8323 33.6164 30.849 33.7402 33.831C33.4867 33.8415 33.2377 33.8768 32.9977 33.9473C32.6782 31.1033 29.5567 29.1165 26.8192 30.1313C27.2527 25.4258 27.9157 21.0645 30.2369 18.4905C31.8802 18.8703 33.4809 19.4153 35.0144 20.1173L34.5427 20.9348C33.0952 23.5425 37.0177 25.8278 38.5777 23.2703L39.0517 22.449C40.4253 23.4254 41.6974 24.5365 42.8489 25.767ZM37.2802 22.5188C36.7927 23.3888 35.3257 22.5458 35.8402 21.687L39.4627 15.4148L40.9012 16.2458L37.2802 22.5188ZM39.7799 13.866C37.6124 12.6158 39.6404 9.1185 41.7974 10.371L44.0999 11.7C46.2599 12.9698 44.2574 16.434 42.0824 15.195L39.7799 13.866Z"
        fill="#2DA884" />
</svg>