<svg width="30" height="30" viewBox="0 0 30 30" fill="none" xmlns="http://www.w3.org/2000/svg">
    <g clip-path="url(#clip0_559_24)">
        <path
            d="M28.1659 0.164551H1.80041C0.897151 0.164551 0.164795 0.896907 0.164795 1.8005V28.166C0.164795 29.0689 0.896822 29.8016 1.80041 29.8016H15.2759V18.3246H11.4136V13.8518H15.2759V10.5532C15.2759 6.72513 17.6139 4.64101 21.0287 4.64101C22.6643 4.64101 24.0704 4.76285 24.4801 4.81719V8.81781L22.1114 8.8188C20.2545 8.8188 19.8949 9.70132 19.8949 10.9961V13.8518H24.324L23.7471 18.3246H19.8949V29.8016H28.1659C29.0692 29.8016 29.8015 29.0692 29.8015 28.1656V1.8005C29.8015 0.896907 29.0692 0.164551 28.1659 0.164551Z"
            fill="#ffffff" />
    </g>
    <defs>
        <clipPath id="clip0_559_24">
            <rect width="30" height="30" fill="rgba(255,255,255,0)" />
        </clipPath>
    </defs>
</svg>