<svg width="48" height="48" viewBox="0 0 48 48" fill="none" xmlns="http://www.w3.org/2000/svg">
    <path
        d="M24.0749 26.1C18.5249 26.1 14.325 18.975 14.325 12.6V12.525V12.225C14.325 11.85 14.7 11.475 15.075 11.55C15.45 11.55 15.75 11.925 15.75 12.3V12.6C15.75 18.225 19.35 24.75 24 24.75C25.05 24.75 26.0249 24.45 27.0749 23.775C30.1499 21.75 32.3249 17.1 32.3249 12.675V12.15C32.3249 11.775 32.625 11.4 33 11.4C33.375 11.4 33.75 11.7 33.75 12.075V12.15C33.75 12.375 33.75 12.6 33.75 12.6C33.75 17.475 31.2749 22.65 27.8249 24.9C26.6999 25.65 25.3499 26.1 24.0749 26.1Z"
        fill="#2DA884" />
    <path
        d="M31.125 13.65C30.3 13.65 29.4 13.425 28.35 12.975C27.975 12.9 25.725 12.3 24 12.225C22.275 12.225 20.025 12.825 19.65 12.975C17.775 13.8 16.2 13.875 15.15 13.2C13.725 12.3 13.65 10.5 13.65 10.2C13.575 9.74999 13.2 5.24999 15.6 2.47499C16.725 1.19999 18.225 0.524988 20.175 0.449988C22.725 0.374988 25.275 0.374988 27.825 0.449988C29.7 0.524988 31.275 1.19999 32.4 2.47499C34.8 5.17499 34.425 9.67499 34.425 10.2C34.425 10.5 34.35 12.3 32.925 13.2C32.4 13.5 31.8 13.65 31.125 13.65ZM24 1.79999C22.725 1.79999 21.45 1.79999 20.25 1.87499C18.75 1.94999 17.55 2.39999 16.725 3.44999C14.7 5.77499 15.075 10.05 15.075 10.125V10.2C15.075 10.2 15.075 11.55 15.9 12.075C16.575 12.525 17.625 12.375 19.05 11.7H19.125C19.2 11.7 21.825 10.95 23.925 10.875C25.95 10.875 28.575 11.625 28.725 11.7H28.8C30.225 12.375 31.35 12.45 32.025 12.075C32.85 11.55 32.85 10.2 32.85 10.2V10.125C32.85 10.05 33.225 5.84999 31.2 3.44999C30.3 2.47499 29.175 1.94999 27.675 1.87499C26.55 1.79999 25.275 1.79999 24 1.79999Z"
        fill="#2DA884" />
    <path
        d="M33.675 10.875C33.6 10.875 33.45 10.875 33.375 10.8C27.15 8.02501 20.85 8.02501 14.625 10.8C14.25 10.95 13.875 10.8 13.65 10.425C13.5 10.05 13.65 9.67501 14.025 9.45001C20.625 6.45001 27.3 6.45001 33.9 9.45001C34.275 9.60001 34.425 10.05 34.275 10.425C34.2 10.725 33.9 10.875 33.675 10.875Z"
        fill="#2DA884" />
    <path
        d="M12.5249 38.475C12.1499 38.475 11.7749 38.175 11.7749 37.725V27.525C11.7749 27.15 12.0749 26.775 12.5249 26.775C12.9749 26.775 13.2749 27.075 13.2749 27.525V37.725C13.2749 38.1 12.9749 38.475 12.5249 38.475ZM15.6749 38.4C15.2999 38.4 14.9249 38.1 14.9249 37.65V26.85C14.9249 26.475 15.2249 26.1 15.6749 26.1C16.1249 26.1 16.4249 26.4 16.4249 26.85V37.725C16.3499 38.1 16.0499 38.4 15.6749 38.4ZM32.3249 38.4C31.9499 38.4 31.5749 38.1 31.5749 37.65V26.85C31.5749 26.475 31.8749 26.1 32.3249 26.1C32.6999 26.1 33.0749 26.4 33.0749 26.85V37.725C33.0749 38.1 32.7749 38.4 32.3249 38.4ZM35.4749 38.475C35.0999 38.475 34.7249 38.175 34.7249 37.725V27.525C34.7249 27.15 35.0249 26.775 35.4749 26.775C35.8499 26.775 36.2249 27.075 36.2249 27.525V37.725C36.1499 38.1 35.8499 38.475 35.4749 38.475Z"
        fill="#2DA884" />
    <path
        d="M10.125 45.975C9.75 45.975 9.375 45.675 9.375 45.225V40.425C9.375 38.7 10.65 37.2 12.45 37.05C12.6 37.05 35.325 37.05 35.475 37.05C37.2 37.2 38.55 38.7 38.55 40.425V45.225C38.55 45.6 38.25 45.975 37.8 45.975C37.425 45.975 37.05 45.675 37.05 45.225V40.425C37.05 39.45 36.3 38.55 35.25 38.475C34.875 38.475 12.9 38.475 12.45 38.475C11.475 38.55 10.725 39.45 10.725 40.425V45.225C10.875 45.6 10.575 45.975 10.125 45.975Z"
        fill="#2DA884" />
    <path
        d="M14.1001 43.425C13.0501 43.425 12.2251 42.6 12.2251 41.55C12.2251 40.5 13.0501 39.675 14.1001 39.675C15.1501 39.675 15.9751 40.5 15.9751 41.55C15.9751 42.6 15.1501 43.425 14.1001 43.425ZM14.1001 41.1C13.8751 41.1 13.6501 41.325 13.6501 41.55C13.6501 41.775 13.8751 42 14.1001 42C14.3251 42 14.5501 41.775 14.5501 41.55C14.5501 41.325 14.3251 41.1 14.1001 41.1ZM33.9001 43.425C32.8501 43.425 32.0251 42.6 32.0251 41.55C32.0251 40.5 32.8501 39.675 33.9001 39.675C34.9501 39.675 35.7751 40.5 35.7751 41.55C35.7751 42.6 34.9501 43.425 33.9001 43.425ZM33.9001 41.1C33.6751 41.1 33.4501 41.325 33.4501 41.55C33.4501 41.775 33.6751 42 33.9001 42C34.1251 42 34.3501 41.775 34.3501 41.55C34.3501 41.325 34.1251 41.1 33.9001 41.1Z"
        fill="#2DA884" />
    <path
        d="M23.925 47.625C19.275 47.625 14.55 47.025 9.97502 45.9C8.40002 45.525 6.82502 45.075 5.32502 44.55C5.10002 44.475 4.87502 44.25 4.87502 44.025C3.82502 38.025 3.37502 31.425 8.32502 28.35C8.92502 27.975 9.52502 27.675 10.275 27.45C10.95 27.225 11.625 27 12.45 26.775C13.575 26.475 14.55 26.25 15.6 26.1C15.675 26.1 15.825 26.025 15.9 26.025H16.05C17.55 25.65 18.45 24.675 18.9 23.175C18.975 22.8 19.425 22.575 19.8 22.65C20.175 22.725 20.4 23.175 20.325 23.55C19.8 25.575 18.45 26.85 16.425 27.45L16.2 27.525C16.125 27.525 15.975 27.525 15.9 27.6C14.85 27.75 13.875 27.975 12.825 28.275C12.075 28.5 11.4 28.65 10.8 28.875C10.2 29.1 9.60002 29.325 9.15002 29.625C5.02502 32.175 5.32502 37.725 6.30002 43.425C7.65002 43.875 9.07502 44.25 10.425 44.625C19.5 46.875 28.65 46.8 37.8 44.625C39.225 44.25 40.575 43.875 41.925 43.5C42.825 38.1 43.2 32.25 39.075 29.7C38.625 29.4 38.025 29.175 37.425 28.95C36.75 28.725 36.075 28.5 35.4 28.35C34.425 28.05 33.375 27.9 32.4 27.675C32.25 27.675 32.175 27.6 32.1 27.6H31.95C29.925 27.075 28.575 25.8 28.05 23.85C27.975 23.475 28.125 23.1 28.575 22.95C28.95 22.875 29.325 23.025 29.475 23.475C29.925 24.975 30.825 25.875 32.325 26.25H32.4C32.55 26.25 32.625 26.25 32.775 26.325C33.825 26.475 34.875 26.7 35.925 27C36.675 27.15 37.35 27.375 38.1 27.675C38.775 27.9 39.45 28.2 39.975 28.575C44.925 31.65 44.475 38.25 43.425 44.25C43.35 44.475 43.2 44.7 42.975 44.775C41.475 45.3 39.9 45.675 38.325 46.125C33.375 47.025 28.65 47.625 23.925 47.625Z"
        fill="#2DA884" />
    <path
        d="M24 30.75C20.85 30.75 17.925 29.175 16.575 26.7C16.35 26.325 16.5 25.95 16.875 25.725C17.25 25.5 17.625 25.65 17.85 26.025C18.975 28.05 21.375 29.325 24 29.325C26.625 29.325 29.025 28.05 30.15 26.025C30.3 25.65 30.75 25.575 31.125 25.725C31.5 25.875 31.575 26.325 31.425 26.7C30.075 29.175 27.15 30.75 24 30.75Z"
        fill="#2DA884" />
</svg>