<svg width="30" height="30" viewBox="0 0 30 30" fill="none" xmlns="http://www.w3.org/2000/svg">
    <g clip-path="url(#clip0_559_27)">
        <path
            d="M14.9831 10.627C12.5318 10.627 10.5376 12.6212 10.5376 15.0725C10.5376 17.5237 12.5318 19.518 14.9831 19.518C17.4344 19.518 19.4286 17.5237 19.4286 15.0725C19.4286 12.6212 17.4344 10.627 14.9831 10.627Z"
            fill="#ffffff" />
        <path
            d="M21.1469 0.165039H8.81938C4.03963 0.165039 0.164795 4.03988 0.164795 8.81962V21.1475C0.164795 25.9269 4.03963 29.8018 8.81938 29.8018H21.1473C25.9267 29.8018 29.8015 25.9269 29.8015 21.1472V8.81962C29.8015 4.03988 25.9267 0.165039 21.1469 0.165039ZM14.9832 22.7808C10.7326 22.7808 7.27464 19.3229 7.27464 15.0726C7.27464 10.8221 10.7326 7.36413 14.9832 7.36413C19.2334 7.36413 22.6913 10.8221 22.6913 15.0726C22.6913 19.3229 19.2334 22.7808 14.9832 22.7808ZM22.8606 7.38389C21.9514 7.38389 21.2141 6.64659 21.2141 5.7374C21.2141 4.82821 21.9514 4.09092 22.8606 4.09092C23.7698 4.09092 24.5071 4.82821 24.5071 5.7374C24.5071 6.64659 23.7698 7.38389 22.8606 7.38389Z"
            fill="#ffffff" />
    </g>
    <defs>
        <clipPath id="clip0_559_27">
            <rect width="30" height="30" fill="rgba(0,0,0,0)" />
        </clipPath>
    </defs>
</svg>