<svg width="16" height="16" viewBox="0 0 16 16" fill="none" xmlns="http://www.w3.org/2000/svg">
    <path
        d="M7.99998 1.3335C5.41998 1.3335 3.33331 3.42016 3.33331 6.00016C3.33331 8.78016 6.27998 12.6135 7.49331 14.0735C7.75998 14.3935 8.24665 14.3935 8.51331 14.0735C9.71998 12.6135 12.6666 8.78016 12.6666 6.00016C12.6666 3.42016 10.58 1.3335 7.99998 1.3335ZM7.99998 7.66683C7.07998 7.66683 6.33331 6.92016 6.33331 6.00016C6.33331 5.08016 7.07998 4.3335 7.99998 4.3335C8.91998 4.3335 9.66665 5.08016 9.66665 6.00016C9.66665 6.92016 8.91998 7.66683 7.99998 7.66683Z"
        fill="#ffffff" />
</svg>