<svg width="100" height="100" viewBox="0 0 100 100" fill="none" xmlns="http://www.w3.org/2000/svg">
    <rect width="100" height="100" rx="50" fill="#047857" />
    <path
        d="M14.88 48.16C13.184 48.16 11.8987 47.696 11.024 46.768C10.16 45.84 9.72804 44.5867 9.72804 43.008C9.72804 41.8773 9.90937 40.9067 10.272 40.096C10.6454 39.2747 11.2107 38.6453 11.968 38.208C12.7254 37.76 13.6907 37.536 14.864 37.536C15.4614 37.536 16.0054 37.584 16.496 37.68C16.9974 37.7653 17.4614 37.8827 17.888 38.032V39.552C17.4614 39.3813 17.0027 39.2533 16.512 39.168C16.032 39.072 15.5254 39.024 14.992 39.024C13.712 39.024 12.8054 39.3653 12.272 40.048C11.7494 40.7307 11.488 41.7173 11.488 43.008C11.488 44.2133 11.776 45.1307 12.352 45.76C12.928 46.3787 13.8187 46.688 15.024 46.688C15.5147 46.688 16.0054 46.6507 16.496 46.576C16.9974 46.4907 17.4667 46.3627 17.904 46.192V47.728C17.4774 47.8667 17.0134 47.9733 16.512 48.048C16.0214 48.1227 15.4774 48.16 14.88 48.16ZM21.9629 48.16C21.4829 48.16 21.0349 48.0747 20.6189 47.904C20.2136 47.7333 19.8882 47.4773 19.6429 47.136C19.3976 46.784 19.2749 46.352 19.2749 45.84C19.2749 45.1147 19.5202 44.5333 20.0109 44.096C20.5122 43.648 21.2802 43.424 22.3149 43.424H24.7469V43.088C24.7469 42.7253 24.6882 42.4373 24.5709 42.224C24.4642 42.0107 24.2616 41.856 23.9629 41.76C23.6749 41.664 23.2482 41.616 22.6829 41.616C21.7869 41.616 20.9496 41.7493 20.1709 42.016V40.72C20.5122 40.5813 20.9282 40.4693 21.4189 40.384C21.9096 40.2987 22.4376 40.256 23.0029 40.256C24.1122 40.256 24.9549 40.48 25.5309 40.928C26.1176 41.376 26.4109 42.1067 26.4109 43.12V48H24.9229L24.8109 47.232C24.5016 47.5307 24.1176 47.76 23.6589 47.92C23.2109 48.08 22.6456 48.16 21.9629 48.16ZM22.4269 46.912C22.9496 46.912 23.4029 46.8267 23.7869 46.656C24.1816 46.4747 24.5016 46.2347 24.7469 45.936V44.608H22.3469C21.8349 44.608 21.4616 44.7093 21.2269 44.912C21.0029 45.104 20.8909 45.4027 20.8909 45.808C20.8909 46.2027 21.0242 46.4853 21.2909 46.656C21.5576 46.8267 21.9362 46.912 22.4269 46.912ZM28.3449 48V40.416H29.9449L30.0409 41.296C30.4036 41.0613 30.8356 40.848 31.3369 40.656C31.8382 40.464 32.3342 40.3307 32.8249 40.256V41.584C32.5262 41.6373 32.2009 41.7173 31.8489 41.824C31.5076 41.92 31.1822 42.032 30.8729 42.16C30.5636 42.2773 30.3022 42.4 30.0889 42.528V48H28.3449ZM36.9184 48.16C36.2357 48.16 35.6331 48.0427 35.1104 47.808C34.5877 47.5733 34.1824 47.184 33.8944 46.64C33.6064 46.096 33.4624 45.3653 33.4624 44.448C33.4624 43.5413 33.6171 42.7787 33.9264 42.16C34.2357 41.5307 34.6624 41.056 35.2064 40.736C35.7611 40.416 36.3851 40.256 37.0784 40.256C37.5371 40.256 37.9424 40.3093 38.2944 40.416C38.6571 40.5227 39.0037 40.688 39.3344 40.912V37.216H41.0784V48H39.5904L39.4784 47.248C39.1371 47.5573 38.7637 47.7867 38.3584 47.936C37.9531 48.0853 37.4731 48.16 36.9184 48.16ZM37.3824 46.848C38.1611 46.848 38.8117 46.5813 39.3344 46.048V42.256C38.8331 41.808 38.2037 41.584 37.4464 41.584C36.7104 41.584 36.1557 41.8293 35.7824 42.32C35.4091 42.8107 35.2224 43.5253 35.2224 44.464C35.2224 45.3707 35.3931 45.9947 35.7344 46.336C36.0864 46.6773 36.6357 46.848 37.3824 46.848ZM43.7349 38.832V37.392H45.6389V38.832H43.7349ZM43.8789 48V41.744H42.7269L42.8869 40.416H45.6229V48H43.8789ZM47.6574 48V40.416H49.2574L49.3374 41.216C49.6787 40.9493 50.0841 40.7253 50.5534 40.544C51.0334 40.352 51.5614 40.256 52.1374 40.256C53.1187 40.256 53.8334 40.4853 54.2814 40.944C54.7294 41.4027 54.9534 42.1173 54.9534 43.088V48H53.2254V43.168C53.2254 42.5813 53.1027 42.1707 52.8574 41.936C52.6227 41.7013 52.1747 41.584 51.5134 41.584C51.1187 41.584 50.7294 41.664 50.3454 41.824C49.9721 41.984 49.6574 42.192 49.4014 42.448V48H47.6574ZM59.9794 50.816C59.4141 50.816 58.8487 50.7787 58.2834 50.704C57.7181 50.64 57.2381 50.5387 56.8434 50.4V49.056C57.2701 49.1947 57.7607 49.3013 58.3154 49.376C58.8701 49.4507 59.3981 49.488 59.8994 49.488C60.6674 49.488 61.2274 49.4453 61.5794 49.36C61.9314 49.2747 62.1074 49.0827 62.1074 48.784C62.1074 48.56 62.0221 48.4 61.8514 48.304C61.6807 48.2187 61.3554 48.176 60.8754 48.176H58.8274C57.4514 48.176 56.7634 47.6907 56.7634 46.72C56.7634 46.4107 56.8541 46.1227 57.0354 45.856C57.2167 45.5893 57.5047 45.3867 57.8994 45.248C57.4621 45.0347 57.1367 44.7413 56.9234 44.368C56.7207 43.9947 56.6194 43.5467 56.6194 43.024C56.6194 42.0533 56.9074 41.3493 57.4834 40.912C58.0701 40.4747 58.9447 40.256 60.1074 40.256C60.3527 40.256 60.6087 40.2773 60.8754 40.32C61.1421 40.352 61.3501 40.384 61.4994 40.416H64.2834L64.2354 41.552H62.9554C63.1581 41.7227 63.3074 41.936 63.4034 42.192C63.4994 42.448 63.5474 42.7253 63.5474 43.024C63.5474 43.8347 63.3021 44.4747 62.8114 44.944C62.3207 45.4027 61.5794 45.632 60.5874 45.632C60.4167 45.632 60.2567 45.6267 60.1074 45.616C59.9687 45.5947 59.8141 45.5733 59.6434 45.552C59.3234 45.584 59.0354 45.6693 58.7794 45.808C58.5234 45.9467 58.3954 46.1333 58.3954 46.368C58.3954 46.528 58.4594 46.6453 58.5874 46.72C58.7154 46.784 58.9287 46.816 59.2274 46.816H61.3554C62.1127 46.816 62.6941 46.9813 63.0994 47.312C63.5154 47.632 63.7234 48.1013 63.7234 48.72C63.7234 49.4667 63.3981 50 62.7474 50.32C62.1074 50.6507 61.1847 50.816 59.9794 50.816ZM60.1074 44.528C60.8007 44.528 61.2807 44.4107 61.5474 44.176C61.8247 43.9413 61.9634 43.5413 61.9634 42.976C61.9634 42.4107 61.8247 42 61.5474 41.744C61.2807 41.488 60.8007 41.36 60.1074 41.36C59.4567 41.36 58.9821 41.4827 58.6834 41.728C58.3847 41.9733 58.2354 42.3893 58.2354 42.976C58.2354 43.52 58.3741 43.9147 58.6514 44.16C58.9394 44.4053 59.4247 44.528 60.1074 44.528ZM18.8324 64.16C17.1364 64.16 15.8564 63.7013 14.9924 62.784C14.1391 61.8667 13.7124 60.624 13.7124 59.056C13.7124 57.9253 13.8991 56.9493 14.2724 56.128C14.6457 55.296 15.2111 54.656 15.9684 54.208C16.7364 53.76 17.7071 53.536 18.8804 53.536C19.4884 53.536 20.0377 53.5787 20.5284 53.664C21.0297 53.7387 21.4991 53.8507 21.9364 54V55.504C21.0617 55.184 20.0911 55.024 19.0244 55.024C17.7124 55.024 16.7897 55.3707 16.2564 56.064C15.7337 56.7573 15.4724 57.7547 15.4724 59.056C15.4724 60.24 15.7497 61.1413 16.3044 61.76C16.8591 62.3787 17.7177 62.688 18.8804 62.688C19.7977 62.688 20.5391 62.5813 21.1044 62.368V59.488H18.5284V58.352H22.5924V63.312C22.2617 63.5253 21.7871 63.7227 21.1684 63.904C20.5604 64.0747 19.7817 64.16 18.8324 64.16ZM26.6504 64.16C26.1704 64.16 25.7224 64.0747 25.3064 63.904C24.9011 63.7333 24.5757 63.4773 24.3304 63.136C24.0851 62.784 23.9624 62.352 23.9624 61.84C23.9624 61.1147 24.2077 60.5333 24.6984 60.096C25.1997 59.648 25.9677 59.424 27.0024 59.424H29.4344V59.088C29.4344 58.7253 29.3757 58.4373 29.2584 58.224C29.1517 58.0107 28.9491 57.856 28.6504 57.76C28.3624 57.664 27.9357 57.616 27.3704 57.616C26.4744 57.616 25.6371 57.7493 24.8584 58.016V56.72C25.1997 56.5813 25.6157 56.4693 26.1064 56.384C26.5971 56.2987 27.1251 56.256 27.6904 56.256C28.7997 56.256 29.6424 56.48 30.2184 56.928C30.8051 57.376 31.0984 58.1067 31.0984 59.12V64H29.6104L29.4984 63.232C29.1891 63.5307 28.8051 63.76 28.3464 63.92C27.8984 64.08 27.3331 64.16 26.6504 64.16ZM27.1144 62.912C27.6371 62.912 28.0904 62.8267 28.4744 62.656C28.8691 62.4747 29.1891 62.2347 29.4344 61.936V60.608H27.0344C26.5224 60.608 26.1491 60.7093 25.9144 60.912C25.6904 61.104 25.5784 61.4027 25.5784 61.808C25.5784 62.2027 25.7117 62.4853 25.9784 62.656C26.2451 62.8267 26.6237 62.912 27.1144 62.912ZM33.0324 64V56.416H34.6324L34.7284 57.296C35.0911 57.0613 35.5231 56.848 36.0244 56.656C36.5257 56.464 37.0217 56.3307 37.5124 56.256V57.584C37.2137 57.6373 36.8884 57.7173 36.5364 57.824C36.1951 57.92 35.8697 58.032 35.5604 58.16C35.2511 58.2773 34.9897 58.4 34.7764 58.528V64H33.0324ZM41.6059 64.16C40.9232 64.16 40.3206 64.0427 39.7979 63.808C39.2752 63.5733 38.8699 63.184 38.5819 62.64C38.2939 62.096 38.1499 61.3653 38.1499 60.448C38.1499 59.5413 38.3046 58.7787 38.6139 58.16C38.9232 57.5307 39.3499 57.056 39.8939 56.736C40.4486 56.416 41.0726 56.256 41.7659 56.256C42.2246 56.256 42.6299 56.3093 42.9819 56.416C43.3446 56.5227 43.6912 56.688 44.0219 56.912V53.216H45.7659V64H44.2779L44.1659 63.248C43.8246 63.5573 43.4512 63.7867 43.0459 63.936C42.6406 64.0853 42.1606 64.16 41.6059 64.16ZM42.0699 62.848C42.8486 62.848 43.4992 62.5813 44.0219 62.048V58.256C43.5206 57.808 42.8912 57.584 42.1339 57.584C41.3979 57.584 40.8432 57.8293 40.4699 58.32C40.0966 58.8107 39.9099 59.5253 39.9099 60.464C39.9099 61.3707 40.0806 61.9947 40.4219 62.336C40.7739 62.6773 41.3232 62.848 42.0699 62.848ZM51.4662 64.16C50.1435 64.16 49.1195 63.8347 48.3942 63.184C47.6688 62.5333 47.3062 61.536 47.3062 60.192C47.3062 58.976 47.6155 58.016 48.2342 57.312C48.8528 56.608 49.7915 56.256 51.0502 56.256C52.2022 56.256 53.0662 56.56 53.6422 57.168C54.2288 57.7653 54.5222 58.5387 54.5222 59.488V60.896H48.9702C49.0555 61.632 49.3222 62.1387 49.7702 62.416C50.2182 62.6933 50.9008 62.832 51.8182 62.832C52.2022 62.832 52.5968 62.7947 53.0022 62.72C53.4075 62.6453 53.7595 62.5493 54.0582 62.432V63.712C53.7168 63.8613 53.3222 63.9733 52.8742 64.048C52.4368 64.1227 51.9675 64.16 51.4662 64.16ZM48.9702 59.76H52.9862V59.232C52.9862 58.7093 52.8422 58.304 52.5542 58.016C52.2662 57.7173 51.7808 57.568 51.0982 57.568C50.2875 57.568 49.7275 57.744 49.4182 58.096C49.1195 58.448 48.9702 59.0027 48.9702 59.76ZM56.2199 64V56.416H57.8199L57.8999 57.216C58.2412 56.9493 58.6466 56.7253 59.1159 56.544C59.5959 56.352 60.1239 56.256 60.6999 56.256C61.6812 56.256 62.3959 56.4853 62.8439 56.944C63.2919 57.4027 63.5159 58.1173 63.5159 59.088V64H61.7879V59.168C61.7879 58.5813 61.6652 58.1707 61.4199 57.936C61.1852 57.7013 60.7372 57.584 60.0759 57.584C59.6812 57.584 59.2919 57.664 58.9079 57.824C58.5346 57.984 58.2199 58.192 57.9639 58.448V64H56.2199Z"
        fill="white" />
    <path
        d="M89.5071 46.4739C91.2122 46.4833 91.9547 44.0634 90.4247 43.2001L89.2735 42.5356C87.5991 41.552 85.8074 43.8658 87.1229 45.26L85.8835 47.4073C84.9842 46.9899 84.0411 46.6744 83.0717 46.4668C83.0108 46.4533 82.9474 46.4554 82.8875 46.4729C82.8276 46.4904 82.7731 46.5227 82.729 46.5669C81.4206 47.8648 80.9845 49.9543 80.7366 52.2538C80.2431 51.6736 79.4792 51.3084 78.6764 51.3568C78.5002 51.0452 78.2549 50.7783 77.9593 50.5765C77.6638 50.3747 77.3259 50.2434 76.9716 50.1928C76.9817 49.6576 77.0776 49.1275 77.2555 48.6226C79.5621 49.2601 81.8631 47.5243 82.144 45.0553C82.151 45.0027 82.1468 44.9493 82.1317 44.8985C82.1166 44.8477 82.0909 44.8006 82.0562 44.7605C79.405 41.8348 74.914 44.3938 76.6187 48.1891C76.5027 48.4845 76.4116 48.7891 76.3461 49.0996C76.0472 48.5986 75.5271 48.0616 75.0209 47.7478C74.4704 44.5918 70.2621 43.9753 68.7846 46.8114C68.7576 46.8639 68.7434 46.922 68.7432 46.9811C68.7429 47.0401 68.7566 47.0984 68.7831 47.1511C69.9272 49.4964 72.8856 50.012 74.5964 48.3654C75.265 48.7543 75.8841 49.6246 76.0716 50.243C75.2909 50.4365 74.6477 51.0166 74.3957 51.7929C73.2445 52.0029 72.367 52.9891 72.3055 54.1674C70.7365 53.7845 69.3869 55.5279 70.1339 56.951H69.118C68.6335 56.9566 68.6181 57.692 69.118 57.701H90.868C91.3525 57.695 91.3679 56.9596 90.868 56.951H90.3115C90.5744 55.7615 89.8172 54.5293 88.6581 54.2158C88.5912 54.0368 88.4986 53.8686 88.3832 53.7163C89.3642 52.7548 89.9504 51.8469 90.2065 50.882C90.2226 50.8214 90.2233 50.7578 90.2085 50.6968C90.1937 50.6359 90.1639 50.5797 90.1217 50.5333C89.4563 49.8001 88.7118 49.1428 87.9017 48.5735L89.1392 46.4296C89.26 46.457 89.383 46.4739 89.5071 46.4739ZM77.6834 44.8801C78.6554 43.919 80.4554 44.1208 81.3745 45.1258C81.0917 47.0285 79.2966 48.3571 77.563 47.924C77.9583 47.1948 78.5242 46.572 79.2122 46.1086C79.295 46.0534 79.3525 45.9676 79.372 45.87C79.3915 45.7724 79.3715 45.6711 79.3163 45.5883C79.289 45.5473 79.2538 45.5121 79.2129 45.4847C79.1719 45.4573 79.126 45.4382 79.0777 45.4285C78.9801 45.409 78.8788 45.4291 78.796 45.4843C78.1051 45.9469 77.521 46.552 77.083 47.2588C76.8756 46.3801 77.0845 45.4599 77.6834 44.8801ZM72.2987 47.7526C72.5447 47.7418 73.1631 47.7474 73.855 47.999C72.5372 49.082 70.4095 48.5904 69.5459 46.9869C70.6064 45.1978 73.3214 45.3759 74.1156 47.297C73.2906 46.997 72.5567 46.9903 72.2642 47.0034C71.7719 47.0353 71.8064 47.7646 72.2987 47.7526ZM85.588 56.951H71.0665C70.012 55.9573 71.2881 54.2998 72.5252 55.0573C72.7919 55.2346 73.165 54.971 73.0885 54.6609C72.8616 53.6195 73.6562 52.5725 74.7216 52.5061C74.8035 52.5001 74.8812 52.4674 74.9427 52.413C75.0042 52.3586 75.0461 52.2856 75.0621 52.205C75.1847 51.5859 75.6625 51.1126 76.2565 50.9675C76.3124 51.4201 76.9641 51.4201 76.9982 50.9634C77.2447 51.02 77.474 51.1346 77.6673 51.2976C77.8605 51.4607 78.0121 51.6675 78.1094 51.9009C78.1739 52.0576 78.3351 52.1484 78.5031 52.1296C79.5239 51.9421 80.5236 52.7188 80.5979 53.7519C80.6121 54.0399 80.9766 54.2019 81.1997 54.02C82.2055 53.198 83.8026 53.996 83.7692 55.2856C83.7542 55.5256 83.6654 55.823 83.9354 55.9546C84.0052 55.9916 84.0849 56.0056 84.1632 55.9945C84.2415 55.9835 84.3142 55.948 84.3711 55.8931C84.5264 55.7431 84.7266 55.6606 84.9355 55.6606C85.5797 55.6423 85.9851 56.4418 85.588 56.951ZM89.6117 56.4748C89.6117 56.6413 89.578 56.7984 89.5292 56.951H86.4134C86.6744 56.234 86.2892 55.3974 85.6341 55.0839C85.4215 53.5614 87.6141 53.1226 87.9985 54.6189C88.0154 54.6899 88.0527 54.7545 88.1058 54.8047C88.1589 54.8548 88.2254 54.8884 88.2974 54.9013C88.6663 54.9674 89.0003 55.1613 89.2406 55.449C89.4809 55.7367 89.6123 56.0999 89.6117 56.4748ZM89.4242 50.8835C89.1749 51.6545 88.6577 52.4053 87.8267 53.2123C86.572 52.4161 84.808 53.4245 84.8699 54.9155C84.7431 54.9208 84.6186 54.9384 84.4986 54.9736C84.3389 53.5516 82.7781 52.5583 81.4094 53.0656C81.6261 50.7129 81.9576 48.5323 83.1182 47.2453C83.9399 47.4352 84.7402 47.7077 85.507 48.0586L85.2711 48.4674C84.5474 49.7713 86.5086 50.9139 87.2886 49.6351L87.5256 49.2245C88.2124 49.7127 88.8485 50.2682 89.4242 50.8835ZM86.6399 49.2594C86.3961 49.6944 85.6626 49.2729 85.9199 48.8435L87.7311 45.7074L88.4504 46.1229L86.6399 49.2594ZM87.8897 44.933C86.806 44.3079 87.82 42.5593 88.8985 43.1855L90.0497 43.85C91.1297 44.4849 90.1285 46.217 89.041 45.5975L87.8897 44.933Z"
        fill="white" />
</svg>