<svg width="16" height="16" viewBox="0 0 16 16" fill="none" xmlns="http://www.w3.org/2000/svg">
    <path
        d="M13.3333 2.6665H2.66665C1.93331 2.6665 1.33998 3.2665 1.33998 3.99984L1.33331 11.9998C1.33331 12.7332 1.93331 13.3332 2.66665 13.3332H13.3333C14.0666 13.3332 14.6666 12.7332 14.6666 11.9998V3.99984C14.6666 3.2665 14.0666 2.6665 13.3333 2.6665ZM13.0666 5.49984L8.35331 8.4465C8.13998 8.57984 7.85998 8.57984 7.64665 8.4465L2.93331 5.49984C2.76665 5.39317 2.66665 5.21317 2.66665 5.01984C2.66665 4.57317 3.15331 4.3065 3.53331 4.53984L7.99998 7.33317L12.4666 4.53984C12.8466 4.3065 13.3333 4.57317 13.3333 5.01984C13.3333 5.21317 13.2333 5.39317 13.0666 5.49984Z"
        fill="#ffffff" />
</svg>