<svg width="48" height="48" viewBox="0 0 48 48" fill="none" xmlns="http://www.w3.org/2000/svg">
    <g clip-path="url(#clip0_574_12)">
        <path
            d="M35.1044 15.188C35.1044 15.6179 35.391 15.9045 35.8209 15.9045H36.5373C36.9671 15.9045 37.2537 15.6179 37.2537 15.188C37.2537 14.7582 36.9671 14.4716 36.5373 14.4716H35.8209C35.4626 14.4716 35.1044 14.7582 35.1044 15.188ZM37.9701 15.188C37.9701 15.6179 38.2567 15.9045 38.6865 15.9045H39.4029C39.8328 15.9045 40.1194 15.6179 40.1194 15.188C40.1194 14.7582 39.8328 14.4716 39.4029 14.4716H38.6865C38.3283 14.4716 37.9701 14.7582 37.9701 15.188ZM42.2686 14.4716H41.5522C41.1223 14.4716 40.8358 14.7582 40.8358 15.188C40.8358 15.6179 41.1223 15.9045 41.5522 15.9045H42.2686C42.6985 15.9045 42.985 15.6179 42.985 15.188C42.985 14.7582 42.6985 14.4716 42.2686 14.4716ZM45.1343 14.4716H44.4179C43.988 14.4716 43.7015 14.7582 43.7015 15.188C43.7015 15.6179 43.988 15.9045 44.4179 15.9045H45.1343C45.5641 15.9045 45.8507 15.6179 45.8507 15.188C45.8507 14.7582 45.5641 14.4716 45.1343 14.4716ZM44.2746 6.23282L43.7015 6.59103C43.3432 6.80595 43.2716 7.2358 43.4149 7.59401C43.5582 7.80894 43.7731 7.95222 44.0597 7.95222C44.2029 7.95222 44.2746 7.95222 44.4179 7.88058L45.0626 7.52237C45.4209 7.30744 45.4925 6.87759 45.3492 6.51939C45.0626 6.16118 44.6328 6.01789 44.2746 6.23282ZM36.8238 10.5313L36.1791 10.8895C35.8209 11.1045 35.7492 11.5343 35.8925 11.8925C36.1074 12.2507 36.5373 12.3224 36.8955 12.1791L37.5403 11.8209C37.8985 11.606 37.9701 11.1761 37.8268 10.8179C37.6119 10.4597 37.1821 10.3164 36.8238 10.5313ZM41.8388 7.66565L41.194 8.02386C40.8358 8.23879 40.7641 8.66864 40.9074 9.02685C41.1223 9.38506 41.5522 9.4567 41.9104 9.31342L42.5552 8.95521C42.9134 8.74028 42.985 8.31043 42.8418 7.95222C42.6268 7.59401 42.1253 7.45073 41.8388 7.66565ZM39.3313 9.09849L38.6865 9.4567C38.3283 9.67162 38.2567 10.1015 38.4 10.4597C38.6149 10.8179 39.0447 10.8895 39.4029 10.7463L40.0477 10.388C40.4059 10.1731 40.4776 9.74327 40.3343 9.38506C40.1194 9.02685 39.6895 8.88356 39.3313 9.09849ZM40.0477 20.7761C39.8328 21.1343 39.9761 21.5642 40.3343 21.7791L40.9791 22.1373C41.3373 22.3522 41.7671 22.2089 41.982 21.8507C42.197 21.4925 42.0537 21.0627 41.6955 20.8477L41.0507 20.4895C40.6925 20.3463 40.2626 20.4179 40.0477 20.7761ZM37.5403 19.3433C37.3253 19.7015 37.4686 20.1313 37.8268 20.3463L38.4716 20.7045C38.8298 20.9194 39.2597 20.7761 39.4746 20.4179C39.6895 20.0597 39.5462 19.6298 39.188 19.4149L38.5432 19.0567C38.185 18.9134 37.7552 18.9851 37.5403 19.3433ZM44.991 23.6418C44.7761 24 44.9194 24.4298 45.2776 24.6448L45.9223 25.003C46.2806 25.2179 46.7104 25.0746 46.9253 24.7164C47.1403 24.3582 46.997 23.9283 46.6388 23.7134L45.994 23.3552C45.6358 23.2119 45.2059 23.2836 44.991 23.6418ZM42.4835 22.2089C42.2686 22.5671 42.4119 22.997 42.7701 23.2119L43.4149 23.5701C43.7731 23.7851 44.2029 23.6418 44.4179 23.2836C44.6328 22.9254 44.4895 22.4955 44.1313 22.2806L43.4865 21.9224C43.1283 21.7791 42.6985 21.8507 42.4835 22.2089ZM2.22085 15.188C2.22085 15.6179 2.50742 15.9045 2.93727 15.9045H3.65369C4.08354 15.9045 4.37011 15.6179 4.37011 15.188C4.37011 14.7582 4.08354 14.4716 3.65369 14.4716H2.93727C2.57906 14.4716 2.22085 14.7582 2.22085 15.188ZM5.80294 15.9045H6.51936C6.94921 15.9045 7.23578 15.6179 7.23578 15.188C7.23578 14.7582 6.94921 14.4716 6.51936 14.4716H5.80294C5.37309 14.4716 5.08653 14.7582 5.08653 15.188C5.08653 15.6179 5.44474 15.9045 5.80294 15.9045ZM10.8179 15.188C10.8179 15.6179 11.1044 15.9045 11.5343 15.9045H12.2507C12.6806 15.9045 12.9671 15.6179 12.9671 15.188C12.9671 14.7582 12.6806 14.4716 12.2507 14.4716H11.5343C11.1761 14.4716 10.8179 14.7582 10.8179 15.188ZM9.38503 14.4716H8.66862C8.23877 14.4716 7.9522 14.7582 7.9522 15.188C7.9522 15.6179 8.23877 15.9045 8.66862 15.9045H9.38503C9.81488 15.9045 10.1015 15.6179 10.1015 15.188C10.1015 14.7582 9.81488 14.4716 9.38503 14.4716ZM5.58802 8.88356L6.23279 9.24177C6.591 9.4567 7.02086 9.31341 7.23578 8.95521C7.45071 8.597 7.30742 8.16715 6.94921 7.95222L6.30444 7.59401C5.94623 7.37909 5.51638 7.52237 5.30145 7.88058C5.08653 8.23879 5.22981 8.74028 5.58802 8.88356ZM11.8925 10.8895L11.2477 10.5313C10.8895 10.3164 10.4597 10.4597 10.2447 10.8179C10.0298 11.1761 10.1731 11.606 10.5313 11.8209L11.1761 12.1791C11.5343 12.394 11.9641 12.2507 12.1791 11.8925C12.3223 11.5343 12.2507 11.1045 11.8925 10.8895ZM9.38503 9.4567L8.74026 9.09849C8.38205 8.88356 7.9522 9.02685 7.73727 9.38506C7.52235 9.74327 7.66563 10.1731 8.02384 10.388L8.66862 10.7463C9.02683 10.9612 9.45668 10.8179 9.6716 10.4597C9.88653 10.1015 9.74324 9.67162 9.38503 9.4567ZM4.44175 6.59103L3.79697 6.23282C3.43876 6.01789 3.00891 6.16118 2.86563 6.51939C2.65071 6.87759 2.79399 7.30744 3.1522 7.52237L3.79697 7.88058C4.15518 8.0955 4.58503 7.95222 4.79996 7.59401C4.8716 7.2358 4.79996 6.80595 4.44175 6.59103ZM9.59996 19.1283L8.95518 19.4865C8.59697 19.7015 8.52533 20.1313 8.66862 20.4895C8.88354 20.8477 9.31339 20.9194 9.6716 20.7761L10.3164 20.4179C10.6746 20.203 10.7462 19.7731 10.6029 19.4149C10.388 18.9851 9.95817 18.9134 9.59996 19.1283ZM1.50444 23.7851C1.14623 24 1.07459 24.4298 1.21787 24.788C1.43279 25.0746 1.86265 25.2179 2.22085 25.003L2.86563 24.6448C3.22384 24.4298 3.29548 24 3.1522 23.6418C2.93727 23.2836 2.50742 23.2119 2.14921 23.3552L1.50444 23.7851ZM7.0925 20.5612L6.44772 20.9194C6.08951 21.1343 6.01787 21.5642 6.16115 21.9224C6.44772 22.2089 6.87757 22.3522 7.16414 22.1373L7.80891 21.7791C8.16712 21.5642 8.23877 21.1343 8.09548 20.7761C7.88056 20.4179 7.45071 20.3463 7.0925 20.5612ZM4.58503 21.994L3.94026 22.3522C3.58205 22.5671 3.51041 22.997 3.65369 23.3552C3.86862 23.7134 4.29847 23.7851 4.65668 23.6418L5.30145 23.2836C5.65966 23.0686 5.7313 22.6388 5.58802 22.2806C5.37309 21.8507 4.94324 21.7791 4.58503 21.994Z"
            fill="#2DA884" />
        <path
            d="M0.286621 46.4956C0.286621 46.9254 0.573188 47.212 1.00304 47.212C15.7612 47.212 33.3135 47.212 46.9971 47.212C47.4269 47.212 47.7135 46.9254 47.7135 46.4956C47.7135 46.0657 47.4269 45.7791 46.9971 45.7791H38.0418V44.6329C41.6239 44.4179 44.4896 41.4806 44.4896 37.8269C44.4896 37.397 44.1314 37.1105 43.7732 37.1105C41.409 37.1105 39.2598 38.3284 38.1135 40.1911V38.4C39.403 37.9702 40.7642 36.6806 41.6239 35.0329C42.9851 32.3821 42.7702 29.5164 40.9792 27.0806C40.8359 26.8657 40.4777 26.7224 40.1911 26.7941C39.9045 26.8657 39.6896 27.1523 39.6896 27.4388C39.6896 27.4388 39.4747 30.2329 37.3971 30.5911C35.9642 30.8776 34.9612 32.1672 34.6747 33.9582C34.4598 35.5344 34.8896 37.612 36.3941 38.3284C36.4657 38.4 36.5374 38.4 36.6807 38.4V39.6896C35.4627 38.1135 33.5284 37.0388 31.3075 37.0388C30.8777 37.0388 30.5911 37.3254 30.5911 37.7553C30.5911 41.2657 33.2418 44.1314 36.6807 44.4896V45.6358H27.3672V35.1045C28.2986 34.6747 28.9433 33.815 28.9433 32.7403V28.3702C29.803 28.012 30.4478 27.2955 30.6627 26.3642L33.3135 16.2627C33.6717 14.7582 33.7433 13.2538 33.3851 11.7493L32.5254 7.80898C32.2389 6.51943 31.1642 5.65973 29.8747 5.65973H27.4389V4.15525C27.4389 2.29256 25.9344 0.788086 24.0717 0.788086C22.209 0.788086 20.7045 2.29256 20.7045 4.15525V5.65973H18.2687C16.9792 5.65973 15.8329 6.51943 15.618 7.80898L14.7583 11.7493C14.4001 13.2538 14.4717 14.8299 14.8299 16.2627L17.4807 26.3642C17.6956 27.2955 18.3404 28.012 19.2001 28.3702V32.812C19.2001 33.8866 19.8448 34.8179 20.7762 35.1761V45.8508H11.1045V44.7045C14.6866 44.4896 17.5523 41.5523 17.5523 37.8985C17.5523 36.2508 13.0389 37.397 11.1045 40.2627V38.4717C14.1851 37.4687 17.4807 31.8806 13.9702 27.1523C13.8269 26.9373 13.4687 26.7941 13.1821 26.8657C12.8956 26.9373 12.6807 27.2239 12.6807 27.5105C12.6807 27.5105 12.4657 30.3045 10.3881 30.6627C8.95528 30.9493 7.95229 32.2388 7.66573 34.0299C7.4508 35.606 7.88065 37.6836 9.38513 38.4C9.45677 38.4717 9.52841 38.4717 9.6717 38.4717V39.7612C8.38214 38.1851 6.44782 37.1105 4.29856 37.1105C3.86871 37.1105 3.58214 37.397 3.58214 37.8269C3.58214 41.3373 6.23289 44.203 9.6717 44.5612V45.7075H1.07468C0.64483 45.7791 0.286621 46.0657 0.286621 46.4956ZM32.0239 38.615C34.3881 38.9732 36.2508 40.8358 36.5374 43.1284C34.1732 42.8418 32.3105 40.9791 32.0239 38.615ZM42.9851 38.615C42.6269 40.9791 40.7642 42.8418 38.4717 43.1284C38.7583 40.8358 40.6209 38.9732 42.9851 38.615ZM36.0359 34.1732C36.1792 33.2418 36.609 32.1672 37.612 32.0239C39.2598 31.6657 40.1911 30.5194 40.6209 29.4448C41.409 31.5224 40.8359 33.3851 40.3344 34.3881C39.4747 36.0358 38.0418 37.1821 37.2538 37.1821C37.1821 37.1821 37.1105 37.1821 37.0389 37.1105C36.2508 36.7523 35.8209 35.4627 36.0359 34.1732ZM5.01498 38.615C7.37916 38.9732 9.24185 40.8358 9.52841 43.1284C7.23588 42.8418 5.37319 40.9791 5.01498 38.615ZM15.9762 38.615C15.618 40.9791 13.7553 42.8418 11.4627 43.1284C11.8209 40.8358 13.6836 38.9732 15.9762 38.615ZM9.09856 34.1732C9.52841 30.806 12.1075 33.0269 13.6836 29.4448C15.1881 33.2418 11.9642 37.1821 10.3165 37.1821C10.2448 37.1821 10.1732 37.1821 10.1015 37.1105C9.31349 36.7523 8.88364 35.4627 9.09856 34.1732ZM31.1642 8.09555L32.0239 12.0358C32.3105 13.3254 32.3105 14.615 31.9523 15.9045L29.3015 26.006C29.0866 26.7224 28.5135 27.2239 27.7971 27.2239H24.7165V22.1373C26.3642 21.7791 27.5821 20.3463 27.5821 18.6269V14.3284C27.5821 12.609 26.3642 11.1761 24.7165 10.8179V7.09256C24.8598 7.09256 30.0896 7.09256 29.8747 7.09256C30.4478 7.09256 31.0209 7.52241 31.1642 8.09555ZM23.9284 12.1791C25.0747 12.1791 26.0777 13.1105 26.0777 14.3284V18.6269C26.0777 19.7732 25.1463 20.7761 23.9284 20.7761C22.7821 20.7761 21.7792 19.8448 21.7792 18.6269V14.3284C21.8508 13.1105 22.7821 12.1791 23.9284 12.1791ZM22.1374 4.15525C22.1374 3.08062 22.9971 2.22092 24.0717 2.22092C25.1463 2.22092 26.006 3.08062 26.006 4.15525V5.65973C25.9344 5.65973 22.1374 5.65973 22.209 5.65973V4.15525H22.1374ZM16.1911 15.9045C15.8329 14.615 15.8329 13.3254 16.1195 12.0358L16.9792 8.09555C17.1224 7.52241 17.6239 7.09256 18.2687 7.09256C18.412 7.09256 23.3553 7.09256 23.212 7.09256V10.8179C21.5642 11.1761 20.3463 12.609 20.3463 14.3284V18.6269C20.3463 20.3463 21.5642 21.7791 23.212 22.1373V27.2239H20.3463C19.6299 27.2239 18.9851 26.7224 18.8418 26.006L16.1911 15.9045ZM20.5612 28.5851H27.5105V32.7403C27.5105 33.3851 27.009 33.8866 26.3642 33.8866H21.7075C21.0627 33.8866 20.5612 33.3851 20.5612 32.7403V28.5851ZM22.1374 35.3194H25.9344V45.7791H22.1374V35.3194Z"
            fill="#2DA884" />
    </g>
</svg>