<svg width="30" height="30" viewBox="0 0 30 30" fill="none" xmlns="http://www.w3.org/2000/svg">
    <g clip-path="url(#clip0_558_14)">
        <path d="M8.36108 7.74219L19.195 22.2247H21.6482L10.8143 7.74219H8.36108Z" fill="#d1d5db" />
        <path
            d="M23.9891 0.165039H5.97721C2.7669 0.165039 0.164795 2.76714 0.164795 5.97746V23.9897C0.164795 27.1997 2.7669 29.8018 5.97721 29.8018H23.9894C27.1994 29.8018 29.8015 27.1997 29.8015 23.9893V5.97746C29.8015 2.76714 27.1994 0.165039 23.9891 0.165039ZM18.616 23.3818L13.6837 16.787L7.57924 23.3818H6.01014L12.9827 15.8495L6.05394 6.58501H11.3941L15.9365 12.6586L21.5582 6.58501H23.1273L16.6375 13.5964L23.9562 23.3818H18.616Z"
            fill="#ffffff" />
    </g>
    <defs>
        <clipPath id="clip0_558_14">
            <rect width="30" height="30" fill="rgba(255,255,255,0)" />
        </clipPath>
    </defs>
</svg>